<svg width="24" height="24" viewBox="0 0 24 24" fill="none" xmlns="http://www.w3.org/2000/svg">
<g id="Frame" clip-path="url(#clip0_1229_4707)">
<g id="Layer_x0020_1">
<g id="_1421344023328">
<path id="Vector" d="M23.6408 14.9029C22.0379 21.3315 15.526 25.2438 9.09587 23.6407C2.66845 22.038 -1.24433 15.5265 0.35924 9.09837C1.9614 2.66903 8.4733 -1.24361 14.9014 0.359081C21.3311 1.96177 25.2436 8.47404 23.6406 14.903L23.6407 14.9029H23.6408Z" fill="#F7931A"/>
<path id="Vector_2" d="M17.2921 10.2898C17.531 8.69291 16.315 7.83449 14.6523 7.26185L15.1917 5.09865L13.8748 4.77054L13.3497 6.87678C13.0035 6.79044 12.6479 6.70908 12.2945 6.62843L12.8234 4.50829L11.5073 4.18018L10.9676 6.34266C10.6811 6.27744 10.3997 6.21298 10.1267 6.14506L10.1282 6.13825L8.31212 5.68479L7.9618 7.09122C7.9618 7.09122 8.93886 7.31516 8.91827 7.32895C9.45156 7.46203 9.548 7.81502 9.53199 8.0948L8.91757 10.5592C8.95429 10.5685 9.00192 10.582 9.05448 10.6031C9.01055 10.5922 8.96379 10.5803 8.91528 10.5687L8.05407 14.0209C7.9889 14.1829 7.82347 14.4261 7.45062 14.3338C7.46382 14.3529 6.49344 14.0949 6.49344 14.0949L5.8396 15.6022L7.5534 16.0294C7.87222 16.1094 8.18465 16.193 8.49233 16.2716L7.94737 18.4597L9.26279 18.7878L9.80248 16.623C10.1618 16.7205 10.5106 16.8105 10.852 16.8953L10.3141 19.0499L11.6311 19.378L12.176 17.1941C14.4217 17.6191 16.1103 17.4477 16.821 15.4168C17.3937 13.7816 16.7925 12.8384 15.6111 12.2233C16.4716 12.0249 17.1197 11.459 17.2926 10.29L17.2921 10.2897L17.2921 10.2898ZM14.2832 14.5087C13.8762 16.1438 11.1227 15.2599 10.23 15.0383L10.9532 12.1395C11.8458 12.3624 14.7085 12.8033 14.2832 14.5087H14.2832ZM14.6904 10.2661C14.3192 11.7535 12.0274 10.9979 11.284 10.8126L11.9397 8.18361C12.6831 8.3689 15.0772 8.71473 14.6906 10.2661H14.6904Z" fill="white"/>
</g>
</g>
</g>
<defs>
<clipPath id="clip0_1229_4707">
<rect width="24" height="24" fill="white"/>
</clipPath>
</defs>
</svg>
