<svg width="24" height="24" viewBox="0 0 24 24" fill="none" xmlns="http://www.w3.org/2000/svg">
<g id="BTCB">
<g id="Layer_x0020_1">
<g id="_1421344023328">
<path id="Vector" d="M23.6409 14.9029C22.0381 21.3315 15.5262 25.2438 9.09606 23.6407C2.66863 22.038 -1.24415 15.5265 0.359423 9.09837C1.96159 2.66903 8.47348 -1.24361 14.9016 0.359081C21.3313 1.96177 25.2438 8.47404 23.6408 14.903L23.6409 14.9029H23.6409Z" fill="url(#paint0_linear_1461_5666)"/>
<path id="Vector_2" d="M17.2923 10.2903C17.5311 8.6934 16.3152 7.83498 14.6525 7.26233L15.1919 5.09914L13.8749 4.77103L13.3499 6.87726C13.0036 6.79092 12.6481 6.70957 12.2947 6.62892L12.8236 4.50878L11.5075 4.18066L10.9678 6.34315C10.6813 6.27793 10.3999 6.21347 10.1269 6.14554L10.1284 6.13874L8.31231 5.68528L7.96198 7.09171C7.96198 7.09171 8.93905 7.31565 8.91846 7.32943C9.45175 7.46252 9.54819 7.81551 9.53217 8.09529L8.91775 10.5597C8.95447 10.569 9.00211 10.5825 9.05467 10.6036C9.01073 10.5927 8.96398 10.5808 8.91546 10.5692L8.05425 14.0214C7.98908 14.1834 7.82366 14.4266 7.4508 14.3342C7.464 14.3534 6.49362 14.0954 6.49362 14.0954L5.83978 15.6027L7.55358 16.0299C7.8724 16.1098 8.18483 16.1935 8.49251 16.2721L7.94755 18.4601L9.26297 18.7883L9.80266 16.6235C10.162 16.721 10.5108 16.811 10.8522 16.8958L10.3143 19.0504L11.6313 19.3785L12.1762 17.1946C14.4219 17.6196 16.1105 17.4482 16.8212 15.4172C17.3939 13.7821 16.7927 12.8389 15.6113 12.2238C16.4718 12.0254 17.1199 11.4595 17.2927 10.2905L17.2923 10.2902L17.2923 10.2903ZM14.2833 14.5091C13.8763 16.1443 11.1229 15.2604 10.2302 15.0387L10.9534 12.14C11.846 12.3628 14.7087 12.8038 14.2834 14.5091H14.2833ZM14.6906 10.2666C14.3194 11.754 12.0276 10.9984 11.2842 10.8131L11.9399 8.1841C12.6833 8.36939 15.0774 8.71522 14.6907 10.2666H14.6906Z" fill="white"/>
</g>
</g>
</g>
<defs>
<linearGradient id="paint0_linear_1461_5666" x1="12" y1="0" x2="12" y2="24" gradientUnits="userSpaceOnUse">
<stop stop-color="#F6A748"/>
<stop offset="1" stop-color="#F8931A"/>
</linearGradient>
</defs>
</svg>
