<svg width="24" height="24" viewBox="0 0 24 24" fill="none" xmlns="http://www.w3.org/2000/svg">
<g id="ethereum-eth 1" clip-path="url(#clip0_1401_5632)">
<g id="Group">
<path id="Vector" d="M12 24C18.6274 24 24 18.6274 24 12C24 5.37258 18.6274 0 12 0C5.37258 0 0 5.37258 0 12C0 18.6274 5.37258 24 12 24Z" fill="#627EEA"/>
<g id="Group_2">
<path id="Vector_2" d="M12.3735 3V9.6525L17.9962 12.165L12.3735 3Z" fill="white" fill-opacity="0.602"/>
<path id="Vector_3" d="M12.3735 3L6.75 12.165L12.3735 9.6525V3Z" fill="white"/>
<path id="Vector_4" d="M12.3735 16.4759V20.9962L18 13.2119L12.3735 16.4759Z" fill="white" fill-opacity="0.602"/>
<path id="Vector_5" d="M12.3735 20.9962V16.4752L6.75 13.2119L12.3735 20.9962Z" fill="white"/>
<path id="Vector_6" d="M12.3735 15.43L17.9962 12.1653L12.3735 9.6543V15.43Z" fill="white" fill-opacity="0.2"/>
<path id="Vector_7" d="M6.75 12.1653L12.3735 15.43V9.6543L6.75 12.1653Z" fill="white" fill-opacity="0.602"/>
</g>
</g>
</g>
<defs>
<clipPath id="clip0_1401_5632">
<rect width="24" height="24" fill="white"/>
</clipPath>
</defs>
</svg>
