<svg width="24" height="24" viewBox="0 0 24 24" fill="none" xmlns="http://www.w3.org/2000/svg">
<circle cx="12" cy="12" r="12" fill="white"/>
<g clip-path="url(#clip0_1450_5616)">
<path d="M7.09678 11.2002L6.96775 11.3848C5.48388 13.6002 5.80646 16.4925 7.80646 18.3387C8.90323 19.4463 10.4516 20.0002 12 20.0002C12 20.0002 12 20.0002 7.09678 11.2002Z" fill="#00A3FF"/>
<path opacity="0.6" d="M12 13.8464L7.0968 11.1387C12 20.0002 12 20.0002 12 20.0002C12 18.0925 12 15.8771 12 13.8464Z" fill="#00A3FF"/>
<path opacity="0.6" d="M16.9032 11.2002L17.0323 11.3848C18.5161 13.6002 18.1935 16.4925 16.1935 18.3387C15.0323 19.4463 13.5484 20.0002 12 20.0002C12 20.0002 12 20.0002 16.9032 11.2002Z" fill="#00A3FF"/>
<path opacity="0.2" d="M12 13.8464L16.9032 11.1387C12 20.0002 12 20.0002 12 20.0002C12 18.0925 12 15.8771 12 13.8464Z" fill="#00A3FF"/>
<path opacity="0.2" d="M12 7.87695V12.4923L16.2581 10.2154L12 7.87695Z" fill="#00A3FF"/>
<path opacity="0.6" d="M12 7.87695L7.74194 10.2154L12 12.4923V7.87695Z" fill="#00A3FF"/>
<path d="M12 4L7.74194 10.2154L12 7.87692V4Z" fill="#00A3FF"/>
<path opacity="0.6" d="M12 7.87692L16.2581 10.2154L12 4V7.87692Z" fill="#00A3FF"/>
</g>
<defs>
<clipPath id="clip0_1450_5616">
<rect width="12" height="16" fill="white" transform="translate(6 4)"/>
</clipPath>
</defs>
</svg>
