<svg width="24" height="24" viewBox="0 0 24 24" fill="none" xmlns="http://www.w3.org/2000/svg">
<g id="&#231;&#188;&#150;&#231;&#187;&#132;">
<path id="&#229;&#189;&#162;&#231;&#138;&#182;" d="M12 24C5.37258 24 0 18.6274 0 12C0 5.37258 5.37258 0 12 0C18.6274 0 24 5.37258 24 12C23.9926 18.6244 18.6244 23.9926 12 24Z" fill="#4D75F2"/>
<path id="&#229;&#189;&#162;&#231;&#138;&#182;_2" fill-rule="evenodd" clip-rule="evenodd" d="M16.9341 18.1183C16.6106 17.7902 16.6106 17.2632 16.9341 16.9351C18.2456 15.6296 18.9807 13.8539 18.9757 12.0034C18.981 10.1519 18.2455 8.37525 16.9329 7.0694C16.6056 6.74265 16.6051 6.21239 16.9318 5.88503C17.2586 5.55766 17.7888 5.55716 18.1162 5.88391C19.7435 7.50396 20.6558 9.70716 20.6502 12.0034C20.6552 14.2988 19.7429 16.5011 18.1162 18.1206C17.9595 18.2779 17.7466 18.3663 17.5246 18.3663C17.3025 18.3663 17.0896 18.2779 16.9329 18.1206L16.9341 18.1183ZM5.8829 18.1183C2.50453 14.7399 2.50453 9.26238 5.8829 5.88391C6.21277 5.57653 6.72682 5.5856 7.04564 5.90442C7.36446 6.22325 7.37353 6.73729 7.06616 7.06716C4.34255 9.79267 4.34255 14.2096 7.06616 16.9351C7.38958 17.2632 7.38958 17.7902 7.06616 18.1183C6.90947 18.2757 6.69657 18.3641 6.47453 18.3641C6.25249 18.3641 6.03959 18.2757 5.8829 18.1183ZM8.55081 13.8307C8.53339 15.2747 9.68549 16.4618 11.1294 16.4874H13.0941C14.4093 16.4594 15.4583 15.3806 15.4494 14.0651C15.5324 13.0164 14.8647 12.0545 13.8531 11.7656L10.7164 10.6716C10.3592 10.5488 10.2364 10.4819 10.2364 9.95721C10.2218 9.56406 10.5245 9.23153 10.9173 9.2093H12.882C13.1324 9.21887 13.3687 9.32794 13.5384 9.51235C13.7082 9.69675 13.7973 9.94125 13.7862 10.1916C13.7862 10.654 14.161 11.0288 14.6234 11.0288C15.0857 11.0288 15.4606 10.654 15.4606 10.1916C15.478 8.74758 14.3259 7.56057 12.882 7.53489H10.9173C10.2835 7.54282 9.67882 7.80272 9.2369 8.2572C8.79498 8.71169 8.55213 9.32337 8.56197 9.95721C8.47901 11.0059 9.14671 11.9678 10.1583 12.2567L13.295 13.3507C13.6522 13.4735 13.775 13.5405 13.775 14.0651C13.7896 14.4583 13.4869 14.7908 13.0941 14.813H11.1294C10.879 14.8035 10.6427 14.6944 10.4729 14.51C10.3032 14.3256 10.214 14.0811 10.2252 13.8307C10.2222 13.3696 9.84913 12.9965 9.38802 12.9935C8.92691 12.9965 8.55385 13.3696 8.55081 13.8307Z" fill="white"/>
<path id="&#232;&#183;&#175;&#229;&#190;&#132;" d="M11.1628 16.6884V7.31163C11.1659 6.85052 11.5389 6.47746 12.0001 6.47442C12.4612 6.47746 12.8342 6.85052 12.8373 7.31163V16.6884C12.8342 17.1495 12.4612 17.5225 12.0001 17.5256C11.5389 17.5225 11.1659 17.1495 11.1628 16.6884Z" fill="white"/>
</g>
</svg>
