<svg width="24" height="24" viewBox="0 0 24 24" fill="none" xmlns="http://www.w3.org/2000/svg">
<g id="&#231;&#188;&#150;&#231;&#187;&#132;">
<rect id="&#231;&#159;&#169;&#229;&#189;&#162;" opacity="0.01" width="24" height="24" fill="black"/>
<path id="&#232;&#183;&#175;&#229;&#190;&#132;" d="M23.9787 11.9958C23.9787 18.5903 18.6329 23.9361 12.0384 23.9361C5.44393 23.9361 0.0981445 18.5903 0.0981445 11.9958C0.0981445 5.40132 5.44394 0.0555268 12.0384 0.0555267C18.6329 0.0555267 23.9787 5.40132 23.9787 11.9958Z" fill="#1BA27A"/>
<path id="&#232;&#183;&#175;&#229;&#190;&#132;_2" d="M17.6421 6.07654H6.33569V8.80609H10.6242V12.818H13.3536V8.80609H17.6421V6.07654Z" fill="white"/>
<path id="&#229;&#189;&#162;&#231;&#138;&#182;" fill-rule="evenodd" clip-rule="evenodd" d="M12.0149 10.5832C15.9983 10.5832 19.2274 11.3072 19.2274 12.2004C19.2274 12.9909 16.6973 13.6488 13.3536 13.7896V19.5466H10.6242V13.7873C7.30625 13.642 4.80225 12.9867 4.80225 12.2004C4.80225 11.3072 8.0315 10.5832 12.0149 10.5832ZM5.59138 11.9913C5.59138 12.6839 8.46732 13.2454 12.0149 13.2454C15.5624 13.2454 18.4383 12.6839 18.4383 11.9913C18.4383 11.2987 15.5624 10.7372 12.0149 10.7372C8.46732 10.7372 5.59138 11.2987 5.59138 11.9913Z" fill="white"/>
</g>
</svg>
