<svg width="24" height="24" viewBox="0 0 24 24" fill="none" xmlns="http://www.w3.org/2000/svg">
<g id="&#233;&#141;&#165;&#230;&#131;&#167;&#231;&#156;&#176;_1" clip-path="url(#clip0_1450_5637)">
<path id="Vector" d="M12 24C18.6274 24 24 18.6274 24 12C24 5.37258 18.6274 0 12 0C5.37258 0 0 5.37258 0 12C0 18.6274 5.37258 24 12 24Z" fill="url(#paint0_linear_1450_5637)"/>
<path id="Vector_2" d="M11.9988 4.8584V9.83712L16.2069 11.7176L11.9988 4.8584Z" fill="#312608"/>
<path id="Vector_3" d="M11.9988 4.8584L7.79028 11.7176L11.9988 9.83712V4.8584Z" fill="#868686"/>
<path id="Vector_4" d="M11.9988 14.9437V18.3266L16.2099 12.501L11.9988 14.9437Z" fill="#322709"/>
<path id="Vector_5" d="M11.9988 18.3266V14.9432L7.79028 12.501L11.9988 18.3266Z" fill="#868686"/>
<path id="Vector_6" d="M11.9988 14.1614L16.2069 11.7182L11.9988 9.83887V14.1614Z" fill="#141004"/>
<path id="Vector_7" d="M7.79028 11.7182L11.9988 14.1614V9.83887L7.79028 11.7182Z" fill="#353535"/>
<path id="Vector_8" d="M16.3453 1.71527C14.3893 0.8878 12.2376 0.63605 10.1434 0.989623C8.04924 1.3432 6.09954 2.28739 4.52362 3.71117L5.34092 4.52847C7.17285 2.89168 9.54345 1.98691 12.0001 1.98691C14.4567 1.98691 16.8273 2.89168 18.6593 4.52847L19.4763 3.7114C18.5522 2.8749 17.4936 2.20008 16.3453 1.71527ZM18.659 19.4718C16.8271 21.1085 14.4566 22.0132 12 22.0132C9.54339 22.0132 7.17284 21.1085 5.34092 19.4718L4.52362 20.2891C6.57328 22.1412 9.23746 23.1666 12 23.1666C14.7625 23.1666 17.4267 22.1412 19.4763 20.2891L18.659 19.4718ZM22.2849 7.65517C21.8002 6.50668 21.1254 5.44809 20.2888 4.52387L19.4717 5.3414C21.1085 7.17334 22.0133 9.54393 22.0133 12.0006C22.0133 14.4572 21.1085 16.8278 19.4717 18.6597L20.2888 19.4764C21.7102 17.8991 22.6528 15.9496 23.0063 13.856C23.3598 11.7624 23.1095 9.61142 22.2847 7.65494L22.2849 7.65517ZM4.52822 5.3414L3.71115 4.52387C1.8592 6.57362 0.833923 9.23777 0.833923 12.0002C0.833923 14.7627 1.8592 17.4268 3.71115 19.4766L4.52845 18.6593C2.8918 16.8273 1.98712 14.4567 1.98712 12.0001C1.98712 9.54351 2.8918 7.17295 4.52845 5.34094L4.52822 5.3414Z" fill="white"/>
</g>
<defs>
<linearGradient id="paint0_linear_1450_5637" x1="0" y1="12" x2="24" y2="12" gradientUnits="userSpaceOnUse">
<stop stop-color="#FFD04E"/>
<stop offset="1" stop-color="#EFBA0C"/>
</linearGradient>
<clipPath id="clip0_1450_5637">
<rect width="24" height="24" fill="white"/>
</clipPath>
</defs>
</svg>
