<svg width="24" height="24" viewBox="0 0 24 24" fill="none" xmlns="http://www.w3.org/2000/svg">
<g id="WBTC" clip-path="url(#clip0_1461_5648)">
<circle id="Ellipse 350" cx="12.0813" cy="12.0815" r="11.4223" fill="white"/>
<g id="Layer 2">
<g id="Layer 1">
<g id="Page-1">
<g id="wbtc colour">
<path id="Shape" d="M19.5694 5.03686L18.9105 5.69584C20.4829 7.4154 21.3549 9.66117 21.3549 11.9913C21.3549 14.3214 20.4829 16.5672 18.9105 18.2867L19.5694 18.9457C21.3181 17.0489 22.289 14.5635 22.289 11.9836C22.289 9.4037 21.3181 6.91829 19.5694 5.02148V5.03686Z" fill="#5A5564"/>
<path id="Shape_2" d="M5.71116 5.09438C7.43072 3.52194 9.67649 2.64995 12.0066 2.64995C14.3367 2.64995 16.5825 3.52194 18.302 5.09438L18.961 4.4354C17.0642 2.68669 14.5788 1.71582 11.9989 1.71582C9.41902 1.71582 6.93361 2.68669 5.0368 4.4354L5.71116 5.09438Z" fill="#5A5564"/>
<path id="Shape_3" d="M5.09389 18.2931C3.52332 16.5739 2.65247 14.3295 2.65247 12.0009C2.65247 9.67235 3.52332 7.42796 5.09389 5.70878L4.43491 5.0498C2.6862 6.94661 1.71533 9.43202 1.71533 12.0119C1.71533 14.5918 2.6862 17.0772 4.43491 18.974L5.09389 18.2931Z" fill="#5A5564"/>
<path id="Shape_4" d="M18.2933 18.9014C16.5737 20.4738 14.3279 21.3458 11.9978 21.3458C9.6677 21.3458 7.42194 20.4738 5.70237 18.9014L5.0434 19.5603C6.9402 21.3091 9.42561 22.2799 12.0055 22.2799C14.5854 22.2799 17.0708 21.3091 18.9676 19.5603L18.2933 18.9014Z" fill="#5A5564"/>
<path id="Shape_5" d="M16.1603 9.80106C16.0285 8.426 14.8424 7.96471 13.3421 7.82413V5.93066H12.1823V7.78898C11.877 7.78898 11.5651 7.78898 11.2553 7.78898V5.93066H10.1043V7.83731H7.75177V9.07839C7.75177 9.07839 8.60844 9.06301 8.59526 9.07839C8.74973 9.06139 8.90476 9.10503 9.02768 9.20009C9.15061 9.29515 9.23184 9.43422 9.25424 9.588V14.8071C9.25094 14.8613 9.2368 14.9144 9.21265 14.963C9.18851 15.0117 9.15484 15.055 9.11366 15.0905C9.07325 15.1266 9.02595 15.1541 8.97461 15.1715C8.92328 15.1889 8.86896 15.1957 8.81492 15.1915C8.8303 15.2047 7.97143 15.1915 7.97143 15.1915L7.75177 16.5776H10.0824V18.515H11.2422V16.6061H12.1691V18.5062H13.3311V16.5907C15.2905 16.4721 16.6568 15.9889 16.8281 14.1547C16.9665 12.6786 16.2724 12.0196 15.1631 11.7538C15.8374 11.4222 16.2548 10.8071 16.1603 9.80106ZM14.5349 13.9263C14.5349 15.3672 12.0659 15.2025 11.2795 15.2025V12.6457C12.0659 12.6479 14.5349 12.4216 14.5349 13.9263ZM13.9967 10.3239C13.9967 11.6418 11.9363 11.4815 11.2817 11.4815V9.15746C11.9363 9.15746 13.9967 8.95098 13.9967 10.3239Z" fill="#F09242"/>
<path id="Shape_6" d="M11.9978 24C9.62462 23.9996 7.30485 23.2955 5.33179 21.9767C3.35874 20.658 1.82101 18.7838 0.913031 16.5912C0.00505138 14.3986 -0.232403 11.986 0.230689 9.65838C0.693782 7.33082 1.83663 5.19282 3.51472 3.51472C5.19282 1.83663 7.33082 0.693782 9.65838 0.230689C11.986 -0.232403 14.3986 0.00505138 16.5912 0.913031C18.7838 1.82101 20.658 3.35874 21.9767 5.33179C23.2955 7.30485 23.9996 9.62462 24 11.9978C24.0003 13.574 23.69 15.1349 23.087 16.5912C22.4839 18.0475 21.5999 19.3707 20.4853 20.4853C19.3707 21.5999 18.0475 22.4839 16.5912 23.087C15.1349 23.69 13.574 24.0003 11.9978 24ZM11.9978 0.935755C9.81137 0.937492 7.67453 1.58738 5.85735 2.80327C4.04018 4.01916 2.62426 5.74648 1.78855 7.7669C0.952839 9.78732 0.734858 12.0101 1.16216 14.1544C1.58945 16.2987 2.64285 18.2682 4.1892 19.8139C5.73555 21.3596 7.70544 22.4123 9.84989 22.8387C11.9943 23.2652 14.2171 23.0463 16.2372 22.2098C18.2572 21.3733 19.984 19.9567 21.1992 18.139C22.4143 16.3214 23.0634 14.1842 23.0643 11.9978C23.0648 10.5446 22.779 9.1055 22.223 7.76285C21.667 6.42019 20.8518 5.20029 19.824 4.17291C18.7962 3.14553 17.576 2.33082 16.2331 1.77537C14.8902 1.21991 13.451 0.9346 11.9978 0.935755Z" fill="#282138"/>
</g>
</g>
</g>
</g>
</g>
<defs>
<clipPath id="clip0_1461_5648">
<rect width="24" height="24" fill="white"/>
</clipPath>
</defs>
</svg>
